<svg version="1.1" id="Layer_1" xmlns="http://www.w3.org/2000/svg" xmlns:xlink="http://www.w3.org/1999/xlink" x="0px" y="0px"
	 width="100%" viewBox="0 0 1024 1024" enable-background="new 0 0 1024 1024" xml:space="preserve">
<path fill="#F7EEE3" opacity="1.000000" stroke="none" 
	d="
M1.000000,391.000000 
	C1.000000,260.666687 1.000000,130.833359 1.000000,1.000035 
	C342.333282,1.000023 683.666565,1.000023 1025.000000,1.000012 
	C1025.000000,342.333252 1025.000000,683.666504 1025.000000,1024.999756 
	C683.666809,1024.999878 342.333618,1024.999878 1.000206,1025.000000 
	C1.000000,813.833313 1.000000,602.666687 1.000000,391.000000 
M846.020935,154.964233 
	C846.020935,154.964233 846.106384,154.944214 845.792053,154.391190 
	C844.867188,153.894714 843.942383,153.398239 843.020264,152.975311 
	C843.020264,152.975311 843.090820,152.954391 842.687134,152.399628 
	C839.464600,150.905197 836.242004,149.410767 833.012817,147.986404 
	C833.012817,147.986404 833.078735,147.961639 832.581238,147.452438 
	C828.388428,145.954773 824.195618,144.457108 819.882141,142.311569 
	C818.891479,142.267227 817.900879,142.222900 816.253845,142.243820 
	C815.833313,142.121796 815.412720,141.999771 814.877197,141.263855 
	C814.152466,141.355072 813.427795,141.446304 811.940491,141.523376 
	C810.950012,141.301849 809.959534,141.080322 808.596802,140.268082 
	C806.728149,140.181290 804.859558,140.094513 802.162048,140.141357 
	C800.767090,140.163361 799.372192,140.185364 797.050598,140.079987 
	C647.325684,140.071365 497.600800,140.073792 347.875916,140.046021 
	C312.239502,140.039413 276.603058,139.931854 240.329697,139.348587 
	C233.529358,139.248642 226.717529,138.884720 219.934418,139.180206 
	C217.264755,139.296494 214.659256,140.885605 211.291000,142.079514 
	C174.047226,151.355545 149.967896,174.519241 138.166260,211.098297 
	C138.022156,211.166840 137.747208,211.276627 137.753845,211.297668 
	C137.833908,211.551773 137.955597,211.792770 138.093033,212.742065 
	C137.741119,213.820297 137.389206,214.898529 136.509979,216.405411 
	C136.343460,217.282089 136.176941,218.158783 135.969833,219.483521 
	C135.969833,219.483521 136.019669,219.930634 136.054367,220.710709 
	C136.068787,220.970596 136.083221,221.230484 136.193588,222.007919 
	C136.096130,222.341782 135.998672,222.675629 135.155807,223.211243 
	C135.061127,226.459000 134.966446,229.706741 135.012192,233.540588 
	C135.072586,233.732193 135.132980,233.923782 135.114670,234.930222 
	C135.037079,236.289719 134.959488,237.649231 134.119476,239.228226 
	C133.748154,241.422943 133.052628,243.617523 133.051819,245.812378 
	C132.999466,387.892792 133.003296,529.973206 133.002563,672.053650 
	C133.002380,707.865234 132.975906,743.676941 133.084229,779.488220 
	C133.089783,781.324585 134.257309,783.157410 135.053360,785.735474 
	C135.005508,786.492554 134.957672,787.249573 134.346252,788.089661 
	C134.052948,788.409424 133.759644,788.729187 133.466278,789.048950 
	C133.950775,789.364075 134.435272,789.679199 135.104263,790.418091 
	C135.104263,790.418091 135.196152,790.871094 135.024399,791.651245 
	C134.979797,792.447693 134.935196,793.244141 134.367752,794.652344 
	C134.261658,797.115906 133.703369,799.667847 134.163086,802.020874 
	C134.747726,805.013306 136.157089,807.844543 137.616348,811.383057 
	C145.649231,842.557007 164.413467,864.853699 193.512039,878.787781 
	C193.512039,878.787781 193.789688,879.016541 193.918716,878.963257 
	C193.918716,878.963257 193.972687,879.091980 194.159119,879.803101 
	C195.506927,880.182495 196.854721,880.561951 198.637329,880.934998 
	C198.637329,880.934998 199.031906,881.117737 199.349167,881.535156 
	C199.669983,881.666870 199.990814,881.798584 200.671677,881.885315 
	C200.671677,881.885315 201.005875,882.026489 201.356995,882.654724 
	C209.494736,884.434326 217.581665,886.530884 225.793640,887.847351 
	C229.393616,888.424500 233.248825,887.409485 237.711761,886.961792 
	C238.450668,886.926758 239.189590,886.891663 240.632294,887.003601 
	C241.107040,887.063843 241.581787,887.124084 242.349686,887.559509 
	C242.880722,887.435730 243.411774,887.311951 244.880112,887.066650 
	C252.268982,887.106812 259.657867,887.146973 267.217316,887.454773 
	C267.217316,887.454773 267.642578,887.523254 267.642578,887.523254 
	C267.642578,887.523254 267.953217,887.187134 268.889038,887.063660 
	C281.280090,886.995483 293.671112,886.927368 306.833984,886.937134 
	C307.866974,886.912292 308.899994,886.887451 310.869537,887.002563 
	C319.933319,886.956787 328.997070,886.911011 338.924896,886.942566 
	C340.950165,886.914978 342.975433,886.887329 344.973816,887.021851 
	C344.973816,887.021851 344.983917,887.185974 345.304504,887.553467 
	C345.850769,887.431396 346.397064,887.309326 347.876068,887.064087 
	C352.603943,886.996582 357.331818,886.929138 362.776520,886.939209 
	C363.496063,886.914001 364.215607,886.888794 365.838989,887.003540 
	C368.578369,886.958374 371.317749,886.913208 374.774963,886.944641 
	C375.495483,886.918579 376.216003,886.892517 377.872742,887.006226 
	C388.600128,887.064392 399.327484,887.122498 410.347778,887.557922 
	C410.879913,887.433228 411.412018,887.308594 412.880951,887.059509 
	C427.608551,887.101868 442.336182,887.144165 457.555573,887.635803 
	C459.015717,887.485474 460.475861,887.335144 462.873138,887.059814 
	C468.930634,887.101196 474.988129,887.142578 481.216522,887.452454 
	C481.216522,887.452454 481.642609,887.521667 481.642609,887.521667 
	C481.642609,887.521667 481.954041,887.184387 482.889832,887.061340 
	C493.281036,886.994446 503.672211,886.927551 514.898621,886.938477 
	C516.575500,886.912109 518.252319,886.885742 520.823669,887.001892 
	C523.236206,887.064819 525.648682,887.127808 528.443787,887.605103 
	C529.275269,887.466125 530.106689,887.327148 531.875793,887.063843 
	C543.602844,886.996521 555.329834,886.929138 567.682190,886.935669 
	C568.100464,886.910217 568.518738,886.884766 569.709473,886.998779 
	C570.489929,886.951599 571.270447,886.904480 572.498474,886.919983 
	C572.498474,886.919983 572.946045,886.857727 573.810669,887.000183 
	C575.560364,887.060791 577.309998,887.121399 579.439941,887.601196 
	C580.273315,887.461731 581.106750,887.322266 582.877625,887.058960 
	C599.601562,886.993042 616.325439,886.927124 633.498352,886.922852 
	C633.498352,886.922852 633.947266,886.859924 634.881836,887.001526 
	C669.273315,887.063965 703.664795,887.126465 738.350220,887.562439 
	C738.881042,887.438843 739.411804,887.315247 740.879700,887.067383 
	C750.607727,887.107483 760.335754,887.147583 770.555054,887.637207 
	C772.015503,887.487488 773.475952,887.337769 775.641785,887.069580 
	C776.115540,887.107178 776.589355,887.144775 777.590454,887.645020 
	C779.372864,887.489868 781.155212,887.334717 783.757935,887.053528 
	C784.861206,887.091858 785.964539,887.130249 787.705322,887.676697 
	C792.347778,887.773010 797.025391,888.256470 801.621338,887.839783 
	C805.131165,887.521606 808.537659,886.063782 812.570862,884.859680 
	C812.986328,884.806030 813.401794,884.752380 814.280396,885.300964 
	C818.513672,883.928894 822.746948,882.556824 827.451477,880.987244 
	C827.621826,880.986267 827.792114,880.985291 828.529663,880.920227 
	C829.006042,880.654541 829.482483,880.388916 830.503113,879.747131 
	C831.323547,879.479980 832.143921,879.212830 833.372131,879.437378 
	C835.246155,878.294678 837.120117,877.151978 839.002075,875.989075 
	C839.002075,875.989075 839.023560,875.993103 839.318542,875.826355 
	C839.514893,875.713196 839.695007,875.578369 840.361816,875.094666 
	C840.558533,875.058411 840.755310,875.022156 841.306641,874.819092 
	C841.542358,874.696411 841.740723,874.529358 842.498718,873.919434 
	C862.344177,862.082458 876.482971,845.371704 885.832520,823.830872 
	C887.016052,820.659241 888.498474,817.560059 889.289551,814.293396 
	C889.936523,811.621704 889.758911,808.750305 889.872009,805.297791 
	C889.959473,804.859558 890.046936,804.421265 890.874329,803.779358 
	C890.974731,800.517029 891.075073,797.254761 890.989380,793.924622 
	C890.989380,793.924622 890.796875,793.970886 890.872803,793.225891 
	C890.946228,792.482117 891.019653,791.738281 891.859619,790.778870 
	C892.237732,788.588257 892.946228,786.397705 892.946960,784.206970 
	C892.999023,629.795349 892.994629,475.383789 892.994690,320.972198 
	C892.994690,294.154205 893.030396,267.336090 892.912292,240.518616 
	C892.904236,238.679153 891.742371,236.844772 890.959778,234.296967 
	C890.913391,233.570480 890.866943,232.844009 891.008545,231.540604 
	C891.055420,231.343857 891.102295,231.147110 891.647522,230.353577 
	C891.152344,227.574814 890.657166,224.796051 889.969604,221.384476 
	C889.940979,220.946396 889.912292,220.508316 890.456787,219.573715 
	C889.326782,215.718445 888.196777,211.863159 886.692261,207.382431 
	C882.331787,198.629684 878.787720,189.326477 873.367554,181.288300 
	C868.526978,174.109680 861.614990,168.327881 855.399292,161.350388 
	C852.940186,159.559967 850.481018,157.769547 848.000000,156.000000 
	C848.000000,156.000000 848.020935,155.979523 847.634094,155.529190 
	C847.092834,155.311829 846.551514,155.094467 846.020935,154.964233 
z"/>
<path fill="#C36F52" opacity="1.000000" stroke="none" 
	d="
M514.063416,886.860657 
	C503.672211,886.927551 493.281036,886.994446 482.194824,887.088257 
	C481.499847,887.115173 481.045624,887.183960 481.045624,887.183960 
	C474.988129,887.142578 468.930634,887.101196 462.000061,887.079468 
	C459.772583,887.128235 458.418182,887.157349 457.063782,887.186523 
	C442.336182,887.144165 427.608551,887.101868 412.098633,887.079163 
	C410.895844,887.126099 410.475372,887.153381 410.054871,887.180664 
	C399.327484,887.122498 388.600128,887.064392 377.227356,886.705444 
	C375.740356,886.559204 374.898743,886.713623 374.057129,886.868042 
	C371.317749,886.913208 368.578369,886.958374 365.209625,886.704041 
	C363.740082,886.556885 362.899872,886.709290 362.059692,886.861694 
	C357.331818,886.929138 352.603943,886.996582 347.084045,887.083740 
	C345.855957,887.130920 345.419952,887.158447 344.983917,887.185974 
	C344.983917,887.185974 344.973816,887.021851 344.710754,886.691772 
	C342.318756,886.529602 340.189819,886.697449 338.060852,886.865234 
	C328.997070,886.911011 319.933319,886.956787 310.192688,886.693237 
	C308.364624,886.542358 307.213379,886.700806 306.062164,886.859253 
	C293.671112,886.927368 281.280090,886.995483 268.194489,887.091125 
	C267.499939,887.118591 267.046722,887.187134 267.046722,887.187134 
	C259.657867,887.146973 252.268982,887.106812 244.098145,887.084106 
	C242.896286,887.129211 242.476410,887.156799 242.056534,887.184387 
	C241.581787,887.124084 241.107040,887.063843 240.015976,886.678833 
	C237.290359,886.510864 235.181061,886.667786 232.637466,886.903198 
	C221.804062,885.330017 211.404968,883.678284 201.005875,882.026489 
	C201.005875,882.026489 200.671677,881.885315 200.344849,881.679321 
	C199.689331,881.354797 199.360626,881.236267 199.031906,881.117737 
	C199.031906,881.117737 198.637329,880.934998 198.178116,880.704834 
	C196.470154,880.013794 195.221420,879.552917 193.972687,879.091980 
	C193.972687,879.091980 193.918716,878.963257 193.805328,878.901123 
	C193.691956,878.839050 193.339340,878.744446 193.339340,878.744446 
	C164.413467,864.853699 145.649231,842.557007 137.399231,810.647461 
	C136.418289,804.621460 135.654434,799.331055 134.890579,794.040588 
	C134.935196,793.244141 134.979797,792.447693 135.341827,790.934448 
	C135.766876,788.061523 135.968536,785.905273 135.968719,783.749084 
	C135.984238,602.304565 135.986389,420.859985 135.952377,239.415451 
	C135.952042,237.648712 135.457291,235.882080 135.193375,234.115387 
	C135.132980,233.923782 135.072586,233.732193 135.010895,232.840668 
	C135.306824,229.097000 135.604019,226.053253 135.901215,223.009491 
	C135.998672,222.675629 136.096130,222.341782 136.361420,221.582794 
	C136.359375,220.748657 136.189529,220.339645 136.019669,219.930634 
	C136.019669,219.930634 135.969833,219.483521 136.289795,219.081757 
	C136.752258,217.778915 136.894775,216.877838 137.037292,215.976761 
	C137.389206,214.898529 137.741119,213.820297 138.206345,212.247635 
	C138.465683,211.536407 138.541214,211.297333 138.546234,211.035995 
	C149.967896,174.519241 174.047226,151.355545 212.067963,141.962067 
	C218.912155,141.280869 224.979355,140.717133 231.365829,140.412155 
	C233.836349,140.781998 235.987579,140.989914 238.138855,140.990234 
	C340.106964,141.005692 442.075104,141.011826 544.043213,140.999954 
	C628.682983,140.990082 713.322815,140.956665 798.390015,140.959534 
	C802.717468,141.549774 806.662354,141.903778 810.508118,142.723175 
	C818.060852,144.332458 825.558350,146.200607 833.078735,147.961639 
	C833.078735,147.961639 833.012817,147.986404 833.145508,148.275787 
	C836.549133,150.028229 839.819946,151.491302 843.090820,152.954376 
	C843.090820,152.954391 843.020264,152.975311 843.140015,153.251495 
	C844.208618,153.999863 845.157532,154.472046 846.106384,154.944214 
	C846.106384,154.944214 846.020935,154.964233 846.163086,155.190979 
	C846.877197,155.604996 847.449036,155.792252 848.020935,155.979523 
	C848.020935,155.979523 848.000000,156.000000 848.037964,156.335510 
	C850.589600,158.423920 853.103271,160.176819 855.617004,161.929718 
	C861.614990,168.327881 868.526978,174.109680 873.367554,181.288300 
	C878.787720,189.326477 882.331787,198.629684 886.890747,208.089249 
	C888.020691,212.554123 888.952148,216.312180 889.883667,220.070221 
	C889.912292,220.508316 889.940979,220.946396 890.044922,222.112366 
	C890.463196,225.543640 890.806152,228.246994 891.149109,230.950363 
	C891.102295,231.147110 891.055420,231.343857 890.662354,232.144608 
	C890.216370,233.903595 890.029053,235.058578 890.028992,236.213562 
	C890.015503,420.190125 890.013184,604.166687 890.047363,788.143250 
	C890.047729,790.085876 890.536194,792.028320 890.796875,793.970886 
	C890.796875,793.970886 890.989380,793.924622 891.028931,794.376648 
	C890.757141,797.880127 890.445801,800.931580 890.134399,803.983032 
	C890.046936,804.421265 889.959473,804.859558 889.739258,805.968750 
	C888.119446,812.421082 886.632324,818.202454 885.145203,823.983887 
	C876.482971,845.371704 862.344177,862.082458 842.000366,874.156616 
	C841.270142,874.546082 841.086792,874.743469 840.952026,874.985962 
	C840.755310,875.022156 840.558533,875.058411 839.941650,875.302063 
	C839.315552,875.629578 839.149597,875.790771 839.023560,875.993103 
	C839.023560,875.993103 839.002075,875.989075 838.660767,876.060913 
	C836.534485,877.070374 834.749451,878.008118 832.964355,878.945801 
	C832.143921,879.212830 831.323547,879.479980 829.950439,879.947632 
	C828.919312,880.426880 828.440857,880.705627 827.962463,880.984375 
	C827.792114,880.985291 827.621826,880.986267 826.857910,881.130249 
	C824.174561,881.824280 822.084778,882.375305 819.743286,882.664124 
	C810.682495,883.290833 801.869080,884.142883 793.071655,885.135742 
	C792.337219,885.218628 791.709900,886.249817 790.643188,886.926392 
	C789.191589,887.064392 788.129700,887.116516 787.067810,887.168640 
	C785.964539,887.130249 784.861206,887.091858 782.929810,887.073364 
	C780.422180,887.122986 778.742676,887.152710 777.063110,887.182434 
	C776.589355,887.144775 776.115540,887.107178 774.884399,887.086548 
	C772.772644,887.131531 771.418213,887.159607 770.063782,887.187683 
	C760.335754,887.147583 750.607727,887.107483 740.097778,887.087463 
	C738.895935,887.134705 738.476135,887.161804 738.056274,887.188965 
	C703.664795,887.126465 669.273315,887.063965 634.338013,886.780457 
	C633.545898,886.659973 633.297668,886.760620 633.049377,886.861206 
	C616.325439,886.927124 599.601562,886.993042 582.050049,887.077759 
	C580.501526,887.125122 579.780640,887.153564 579.059692,887.182007 
	C577.309998,887.121399 575.560364,887.060791 573.301758,886.780090 
	C572.792847,886.559998 572.351318,886.483398 572.351318,886.483398 
	C572.351318,886.483398 572.050903,886.857361 572.050903,886.857361 
	C571.270447,886.904480 570.489929,886.951599 569.187622,886.722656 
	C568.129517,886.584900 567.593201,886.723328 567.056885,886.861755 
	C555.329834,886.929138 543.602844,886.996521 531.048645,887.083008 
	C529.501404,887.131714 528.781311,887.161194 528.061218,887.190735 
	C525.648682,887.127808 523.236206,887.064819 520.125488,886.680847 
	C517.639404,886.526733 515.851379,886.693726 514.063416,886.860657 
M508.095062,356.570221 
	C508.373627,356.834503 508.652222,357.098816 509.306183,357.890503 
	C509.966980,358.394531 510.586975,358.966217 511.294586,359.392517 
	C523.815613,366.935852 531.659424,377.677490 536.173950,391.753082 
	C542.268555,410.755157 549.719788,429.323700 556.644226,448.057831 
	C581.799744,516.116638 607.041748,584.143738 632.023254,652.266357 
	C633.936401,657.483337 637.257629,659.286987 642.006348,659.511414 
	C648.229126,659.805603 651.037659,657.914612 652.966858,652.429077 
	C663.675903,621.978088 674.317078,591.503174 685.011780,561.047119 
	C704.971069,504.207672 724.986450,447.387909 744.891052,390.529388 
	C748.619507,379.879059 754.212891,370.673187 763.485962,363.975433 
	C767.804199,360.856445 772.131104,357.749542 776.451416,354.633606 
	C779.321716,352.563507 780.089722,350.334442 776.740723,347.083038 
	C772.853699,347.011810 768.966736,346.940552 764.294006,346.975647 
	C763.504333,346.933502 762.714661,346.891388 761.640320,346.454529 
	C761.093384,346.583862 760.546509,346.713196 759.989807,347.009338 
	C759.989807,347.009338 759.986084,347.176392 759.100098,347.106720 
	C756.726990,347.039886 754.353821,346.973053 751.356506,346.365173 
	C745.933105,346.528107 740.509644,346.691040 734.357483,346.975708 
	C733.869690,347.040894 733.381958,347.106079 732.035095,347.106171 
	C730.016296,347.036835 727.997437,346.967499 725.349609,346.361267 
	C717.340332,346.250336 709.331055,346.098175 701.321777,346.094788 
	C700.555054,346.094452 699.788025,347.021484 698.584534,348.061005 
	C695.667053,353.181519 696.298340,356.262939 700.937195,359.475342 
	C703.128418,360.992828 705.226135,362.683563 707.546936,363.969574 
	C722.892639,372.472870 724.149841,389.044708 720.196838,400.801361 
	C713.460693,420.835480 706.725403,440.870667 699.832520,460.851135 
	C691.366638,485.391205 682.719727,509.868713 674.190186,534.386841 
	C669.716492,547.246460 665.326233,560.135132 660.812195,573.261169 
	C660.053589,570.604614 659.496521,568.030029 658.589966,565.585022 
	C654.191589,553.722534 649.616516,541.925415 645.255249,530.049500 
	C627.642090,482.087982 610.042419,434.121399 592.550842,386.115479 
	C589.836426,378.665710 589.623657,371.109436 594.065430,363.513397 
	C594.144592,363.365906 594.223816,363.218384 594.822754,362.717926 
	C596.575500,360.905762 598.328247,359.093628 600.675537,356.839539 
	C602.188721,354.390839 603.122437,351.991180 600.162048,349.914337 
	C600.162048,349.914337 600.164490,349.841583 600.126282,349.351044 
	C599.827759,348.958771 599.529175,348.566467 598.587952,347.557251 
	C597.625793,347.375031 596.663879,347.034576 595.701538,347.033600 
	C567.833374,347.004852 539.965271,347.002625 512.097168,347.053619 
	C511.417938,347.054840 510.739868,347.708221 509.608734,348.426300 
	C509.039062,348.926788 508.469360,349.427307 507.942383,350.004333 
	C507.942383,350.004333 507.937134,349.916870 507.330048,350.384827 
	C507.536224,352.283386 507.742401,354.181976 507.983337,356.016418 
	C507.983337,356.016418 507.910492,356.020142 508.095062,356.570221 
M534.178528,516.565247 
	C534.376160,508.163330 534.595032,499.761719 534.711975,491.358673 
	C534.718140,490.915070 533.861450,490.459503 533.180298,490.233246 
	C533.180298,490.233246 532.871582,490.309753 532.932068,489.418976 
	C530.547668,463.802734 522.717590,439.935883 509.385895,417.972900 
	C492.313873,389.848083 468.763977,369.372742 437.575836,358.042725 
	C421.171082,352.083191 404.171509,349.239807 386.660980,346.960175 
	C385.606049,346.646515 384.551422,346.059937 383.496094,346.058624 
	C343.676605,346.008911 303.857056,346.007843 264.037567,346.057068 
	C263.406525,346.057861 262.776337,346.765106 261.676392,347.590759 
	C261.089783,348.376099 260.503143,349.161438 259.998779,350.000000 
	C259.998779,350.000000 259.918762,349.944641 259.217590,350.120819 
	C259.220062,352.376190 259.222534,354.631592 259.481842,357.490387 
	C262.236145,359.845001 264.976440,362.216309 267.747620,364.550873 
	C273.859039,369.699371 278.675079,375.576721 278.348602,384.702423 
	C278.231598,386.016724 278.012482,387.330963 278.012177,388.645294 
	C277.994324,464.836334 277.989014,541.027344 278.031525,617.218384 
	C278.032410,618.794739 278.607422,620.370789 279.070892,622.450073 
	C279.114990,622.620056 279.159058,622.789978 278.998566,623.716370 
	C277.567383,631.293396 273.978668,637.704590 268.569092,643.155090 
	C266.009064,645.734436 263.521118,648.385315 260.455353,651.442566 
	C258.754364,653.795532 258.036469,656.075378 260.986206,658.010559 
	C260.986206,658.010559 260.913727,658.051392 261.169861,658.494263 
	C261.686798,658.930481 262.203705,659.366638 263.368561,660.429260 
	C264.499176,660.619812 265.629639,660.976196 266.760406,660.976990 
	C305.060730,661.003967 343.361115,661.014465 381.661255,660.928589 
	C383.104980,660.925354 384.546448,659.940369 386.654388,659.129456 
	C391.080872,658.711609 395.507385,658.293762 400.775604,657.904541 
	C405.040588,657.241089 409.313019,656.621826 413.569489,655.907532 
	C471.232635,646.230835 516.069153,603.093384 528.188293,545.251892 
	C529.927856,535.831238 531.667480,526.410522 534.178528,516.565247 
z"/>
<path fill="#FBFAF6" opacity="1.000000" stroke="none" 
	d="
M891.117188,235.008026 
	C891.742371,236.844772 892.904236,238.679153 892.912292,240.518616 
	C893.030396,267.336090 892.994690,294.154205 892.994690,320.972198 
	C892.994629,475.383789 892.999023,629.795349 892.946960,784.206970 
	C892.946228,786.397705 892.237732,788.588257 891.413635,790.421936 
	C890.973877,651.173767 890.970032,512.282532 890.992065,373.391266 
	C890.999451,327.263519 891.073547,281.135773 891.117188,235.008026 
z"/>
<path fill="#FCFAF6" opacity="1.000000" stroke="none" 
	d="
M134.883835,784.991882 
	C134.257309,783.157410 133.089783,781.324585 133.084229,779.488220 
	C132.975906,743.676941 133.002380,707.865234 133.002563,672.053650 
	C133.003296,529.973206 132.999466,387.892792 133.051819,245.812378 
	C133.052628,243.617523 133.748154,241.422943 134.562744,239.583054 
	C135.005707,379.325806 135.014633,518.713745 134.999588,658.101685 
	C134.995010,700.398438 134.924271,742.695129 134.883835,784.991882 
z"/>
<path fill="#AB421D" opacity="1.000000" stroke="none" 
	d="
M797.962585,140.933685 
	C713.322815,140.956665 628.682983,140.990082 544.043213,140.999954 
	C442.075104,141.011826 340.106964,141.005692 238.138855,140.990234 
	C235.987579,140.989914 233.836349,140.781998 231.813263,140.356079 
	C234.949829,139.984390 237.958237,139.927551 240.966629,139.870712 
	C276.603058,139.931854 312.239502,140.039413 347.875916,140.046021 
	C497.600800,140.073792 647.325684,140.071365 797.512573,140.325302 
	C797.974609,140.570618 797.962585,140.933685 797.962585,140.933685 
z"/>
<path fill="#A73510" opacity="1.000000" stroke="none" 
	d="
M891.038452,234.652496 
	C891.073547,281.135773 890.999451,327.263519 890.992065,373.391266 
	C890.970032,512.282532 890.973877,651.173767 891.030334,790.529785 
	C891.019653,791.738281 890.946228,792.482117 890.834839,793.598389 
	C890.536194,792.028320 890.047729,790.085876 890.047363,788.143250 
	C890.013184,604.166687 890.015503,420.190125 890.028992,236.213562 
	C890.029053,235.058578 890.216370,233.903595 890.568359,232.433075 
	C890.866943,232.844009 890.913391,233.570480 891.038452,234.652496 
z"/>
<path fill="#A73510" opacity="1.000000" stroke="none" 
	d="
M134.968597,785.363647 
	C134.924271,742.695129 134.995010,700.398438 134.999588,658.101685 
	C135.014633,518.713745 135.005707,379.325806 134.943939,239.473297 
	C134.959488,237.649231 135.037079,236.289719 135.154022,234.522797 
	C135.457291,235.882080 135.952042,237.648712 135.952377,239.415451 
	C135.986389,420.859985 135.984238,602.304565 135.968719,783.749084 
	C135.968536,785.905273 135.766876,788.061523 135.427704,790.544434 
	C135.196152,790.871094 135.104263,790.418091 135.078400,789.876831 
	C135.004974,788.892578 134.957413,788.449646 134.909836,788.006653 
	C134.957672,787.249573 135.005508,786.492554 134.968597,785.363647 
z"/>
<path fill="#FBFCFB" opacity="1.000000" stroke="none" 
	d="
M201.181427,882.340576 
	C211.404968,883.678284 221.804062,885.330017 233.026733,886.961182 
	C234.896240,886.999573 235.942200,887.058472 236.988144,887.117371 
	C233.248825,887.409485 229.393616,888.424500 225.793640,887.847351 
	C217.581665,886.530884 209.494736,884.434326 201.181427,882.340576 
z"/>
<path fill="#B35330" opacity="1.000000" stroke="none" 
	d="
M798.390015,140.959534 
	C797.962585,140.933685 797.974609,140.570618 797.975952,140.388992 
	C799.372192,140.185364 800.767090,140.163361 802.941162,140.183578 
	C805.469849,140.436798 807.219482,140.647797 808.969055,140.858795 
	C809.959534,141.080322 810.950012,141.301849 812.587219,141.660919 
	C813.820007,141.824890 814.406128,141.851318 814.992188,141.877762 
	C815.412720,141.999771 815.833313,142.121796 816.855652,142.388397 
	C818.305908,142.675125 819.154358,142.817276 820.002808,142.959427 
	C824.195618,144.457108 828.388428,145.954773 832.829956,147.707031 
	C825.558350,146.200607 818.060852,144.332458 810.508118,142.723175 
	C806.662354,141.903778 802.717468,141.549774 798.390015,140.959534 
z"/>
<path fill="#B35330" opacity="1.000000" stroke="none" 
	d="
M791.032837,886.840332 
	C791.709900,886.249817 792.337219,885.218628 793.071655,885.135742 
	C801.869080,884.142883 810.682495,883.290833 819.401184,882.786743 
	C817.479553,883.680603 815.648438,884.189697 813.817261,884.698730 
	C813.401794,884.752380 812.986328,884.806030 811.860107,884.957275 
	C804.443848,885.650085 797.738281,886.245178 791.032837,886.840332 
z"/>
<path fill="#FBFCFB" opacity="1.000000" stroke="none" 
	d="
M240.648163,139.609650 
	C237.958237,139.927551 234.949829,139.984390 231.494003,140.097321 
	C224.979355,140.717133 218.912155,141.280869 212.434723,141.824310 
	C214.659256,140.885605 217.264755,139.296494 219.934418,139.180206 
	C226.717529,138.884720 233.529358,139.248642 240.648163,139.609650 
z"/>
<path fill="#FBFCFB" opacity="1.000000" stroke="none" 
	d="
M790.643127,886.926331 
	C797.738281,886.245178 804.443848,885.650085 811.569763,885.083862 
	C808.537659,886.063782 805.131165,887.521606 801.621338,887.839783 
	C797.025391,888.256470 792.347778,887.773010 787.386597,887.422668 
	C788.129700,887.116516 789.191589,887.064392 790.643127,886.926331 
z"/>
<path fill="#FBFAF6" opacity="1.000000" stroke="none" 
	d="
M885.488892,823.907349 
	C886.632324,818.202454 888.119446,812.421082 889.776672,806.303589 
	C889.758911,808.750305 889.936523,811.621704 889.289551,814.293396 
	C888.498474,817.560059 887.016052,820.659241 885.488892,823.907349 
z"/>
<path fill="#FCFAF6" opacity="1.000000" stroke="none" 
	d="
M134.629166,794.346436 
	C135.654434,799.331055 136.418289,804.621460 137.196503,810.328613 
	C136.157089,807.844543 134.747726,805.013306 134.163086,802.020874 
	C133.703369,799.667847 134.261658,797.115906 134.629166,794.346436 
z"/>
<path fill="#FBFCFB" opacity="1.000000" stroke="none" 
	d="
M814.048828,884.999878 
	C815.648438,884.189697 817.479553,883.680603 819.652832,883.048950 
	C822.084778,882.375305 824.174561,881.824280 826.622314,881.229004 
	C822.746948,882.556824 818.513672,883.928894 814.048828,884.999878 
z"/>
<path fill="#FBFAF6" opacity="1.000000" stroke="none" 
	d="
M890.170227,219.821960 
	C888.952148,216.312180 888.020691,212.554123 887.078003,208.401978 
	C888.196777,211.863159 889.326782,215.718445 890.170227,219.821960 
z"/>
<path fill="#B35330" opacity="1.000000" stroke="none" 
	d="
M842.888977,152.677002 
	C839.819946,151.491302 836.549133,150.028229 833.148865,148.240753 
	C836.242004,149.410767 839.464600,150.905197 842.888977,152.677002 
z"/>
<path fill="#FCFAF6" opacity="1.000000" stroke="none" 
	d="
M135.528503,223.110367 
	C135.604019,226.053253 135.306824,229.097000 134.940689,232.547638 
	C134.966446,229.706741 135.061127,226.459000 135.528503,223.110367 
z"/>
<path fill="#FBFAF6" opacity="1.000000" stroke="none" 
	d="
M890.504395,803.881226 
	C890.445801,800.931580 890.757141,797.880127 891.121948,794.410522 
	C891.075073,797.254761 890.974731,800.517029 890.504395,803.881226 
z"/>
<path fill="#FBFAF6" opacity="1.000000" stroke="none" 
	d="
M891.398315,230.651978 
	C890.806152,228.246994 890.463196,225.543640 890.141113,222.428787 
	C890.657166,224.796051 891.152344,227.574814 891.398315,230.651978 
z"/>
<path fill="#B35330" opacity="1.000000" stroke="none" 
	d="
M855.508179,161.640045 
	C853.103271,160.176819 850.589600,158.423920 848.048889,156.325073 
	C850.481018,157.769547 852.940186,159.559967 855.508179,161.640045 
z"/>
<path fill="#FBFCFB" opacity="1.000000" stroke="none" 
	d="
M833.168213,879.191589 
	C834.749451,878.008118 836.534485,877.070374 838.656799,876.070984 
	C837.120117,877.151978 835.246155,878.294678 833.168213,879.191589 
z"/>
<path fill="#FBFCFB" opacity="1.000000" stroke="none" 
	d="
M808.782959,140.563446 
	C807.219482,140.647797 805.469849,140.436798 803.355591,140.116760 
	C804.859558,140.094513 806.728149,140.181290 808.782959,140.563446 
z"/>
<path fill="#B35330" opacity="1.000000" stroke="none" 
	d="
M338.492859,886.903931 
	C340.189819,886.697449 342.318756,886.529602 344.724213,886.610718 
	C342.975433,886.887329 340.950165,886.914978 338.492859,886.903931 
z"/>
<path fill="#B35330" opacity="1.000000" stroke="none" 
	d="
M237.349945,887.039551 
	C235.942200,887.058472 234.896240,886.999573 233.461029,886.882690 
	C235.181061,886.667786 237.290359,886.510864 239.664078,886.605286 
	C239.189590,886.891663 238.450668,886.926758 237.349945,887.039551 
z"/>
<path fill="#FBFCFB" opacity="1.000000" stroke="none" 
	d="
M777.326782,887.413696 
	C778.742676,887.152710 780.422180,887.122986 782.519653,887.136414 
	C781.155212,887.334717 779.372864,887.489868 777.326782,887.413696 
z"/>
<path fill="#B35330" opacity="1.000000" stroke="none" 
	d="
M514.481018,886.899536 
	C515.851379,886.693726 517.639404,886.526733 519.678284,886.609619 
	C518.252319,886.885742 516.575500,886.912109 514.481018,886.899536 
z"/>
<path fill="#FBFCFB" opacity="1.000000" stroke="none" 
	d="
M194.065903,879.447510 
	C195.221420,879.552917 196.470154,880.013794 197.960709,880.708008 
	C196.854721,880.561951 195.506927,880.182495 194.065903,879.447510 
z"/>
<path fill="#FBFCFB" opacity="1.000000" stroke="none" 
	d="
M770.309448,887.412476 
	C771.418213,887.159607 772.772644,887.131531 774.531738,887.145752 
	C773.475952,887.337769 772.015503,887.487488 770.309448,887.412476 
z"/>
<path fill="#FBFCFB" opacity="1.000000" stroke="none" 
	d="
M457.309692,887.411133 
	C458.418182,887.157349 459.772583,887.128235 461.531494,887.141968 
	C460.475861,887.335144 459.015717,887.485474 457.309692,887.411133 
z"/>
<path fill="#FBFCFB" opacity="1.000000" stroke="none" 
	d="
M819.942505,142.635498 
	C819.154358,142.817276 818.305908,142.675125 817.183838,142.355774 
	C817.900879,142.222900 818.891479,142.267227 819.942505,142.635498 
z"/>
<path fill="#B35330" opacity="1.000000" stroke="none" 
	d="
M306.448059,886.898193 
	C307.213379,886.700806 308.364624,886.542358 309.724426,886.623291 
	C308.899994,886.887451 307.866974,886.912292 306.448059,886.898193 
z"/>
<path fill="#FBFCFB" opacity="1.000000" stroke="none" 
	d="
M814.934692,141.570801 
	C814.406128,141.851318 813.820007,141.824890 812.968506,141.667984 
	C813.427795,141.446304 814.152466,141.355072 814.934692,141.570801 
z"/>
<path fill="#FCFAF6" opacity="1.000000" stroke="none" 
	d="
M134.628052,788.048157 
	C134.957413,788.449646 135.004974,788.892578 134.986160,789.664917 
	C134.435272,789.679199 133.950775,789.364075 133.466309,789.048950 
	C133.759644,788.729187 134.052948,788.409424 134.628052,788.048157 
z"/>
<path fill="#B35330" opacity="1.000000" stroke="none" 
	d="
M845.949219,154.667709 
	C845.157532,154.472046 844.208618,153.999863 843.138672,153.214722 
	C843.942383,153.398239 844.867188,153.894714 845.949219,154.667709 
z"/>
<path fill="#FBFCFB" opacity="1.000000" stroke="none" 
	d="
M528.252502,887.397949 
	C528.781311,887.161194 529.501404,887.131714 530.579834,887.145142 
	C530.106689,887.327148 529.275269,887.466125 528.252502,887.397949 
z"/>
<path fill="#FBFCFB" opacity="1.000000" stroke="none" 
	d="
M579.249817,887.391602 
	C579.780640,887.153564 580.501526,887.125122 581.581299,887.139709 
	C581.106750,887.322266 580.273315,887.461731 579.249817,887.391602 
z"/>
<path fill="#FCFAF6" opacity="1.000000" stroke="none" 
	d="
M136.773621,216.191086 
	C136.894775,216.877838 136.752258,217.778915 136.310089,218.857727 
	C136.176941,218.158783 136.343460,217.282089 136.773621,216.191086 
z"/>
<path fill="#B35330" opacity="1.000000" stroke="none" 
	d="
M374.416046,886.906372 
	C374.898743,886.713623 375.740356,886.559204 376.759247,886.635559 
	C376.216003,886.892517 375.495483,886.918579 374.416046,886.906372 
z"/>
<path fill="#B35330" opacity="1.000000" stroke="none" 
	d="
M362.418091,886.900391 
	C362.899872,886.709290 363.740082,886.556885 364.757690,886.634033 
	C364.215607,886.888794 363.496063,886.914001 362.418091,886.900391 
z"/>
<path fill="#FBFCFB" opacity="1.000000" stroke="none" 
	d="
M410.201324,887.369263 
	C410.475372,887.153381 410.895844,887.126099 411.630249,887.141357 
	C411.412018,887.308594 410.879913,887.433228 410.201324,887.369263 
z"/>
<path fill="#FBFCFB" opacity="1.000000" stroke="none" 
	d="
M345.144226,887.369751 
	C345.419952,887.158447 345.855957,887.130920 346.617676,887.145325 
	C346.397064,887.309326 345.850769,887.431396 345.144226,887.369751 
z"/>
<path fill="#FBFCFB" opacity="1.000000" stroke="none" 
	d="
M242.203110,887.371948 
	C242.476410,887.156799 242.896286,887.129211 243.629486,887.144897 
	C243.411774,887.311951 242.880722,887.435730 242.203110,887.371948 
z"/>
<path fill="#B35330" opacity="1.000000" stroke="none" 
	d="
M567.369507,886.898682 
	C567.593201,886.723328 568.129517,886.584900 568.801392,886.652893 
	C568.518738,886.884766 568.100464,886.910217 567.369507,886.898682 
z"/>
<path fill="#FBFCFB" opacity="1.000000" stroke="none" 
	d="
M738.203247,887.375671 
	C738.476135,887.161804 738.895935,887.134705 739.629211,887.149597 
	C739.411804,887.315247 738.881042,887.438843 738.203247,887.375671 
z"/>
<path fill="#B35330" opacity="1.000000" stroke="none" 
	d="
M847.827515,155.754349 
	C847.449036,155.792252 846.877197,155.604996 846.157776,155.147430 
	C846.551514,155.094467 847.092834,155.311829 847.827515,155.754349 
z"/>
<path fill="#FCFAF6" opacity="1.000000" stroke="none" 
	d="
M138.356247,211.067139 
	C138.541214,211.297333 138.465683,211.536407 138.193039,211.895203 
	C137.955597,211.792770 137.833908,211.551773 137.753845,211.297668 
	C137.747208,211.276627 138.022156,211.166840 138.356247,211.067139 
z"/>
<path fill="#FBFCFB" opacity="1.000000" stroke="none" 
	d="
M828.246094,880.952271 
	C828.440857,880.705627 828.919312,880.426880 829.678345,880.135742 
	C829.482483,880.388916 829.006042,880.654541 828.246094,880.952271 
z"/>
<path fill="#FBFCFB" opacity="1.000000" stroke="none" 
	d="
M481.131073,887.318237 
	C481.045624,887.183960 481.499847,887.115173 481.726929,887.149780 
	C481.954041,887.184387 481.642609,887.521667 481.642609,887.521667 
	C481.642609,887.521667 481.216522,887.452454 481.131073,887.318237 
z"/>
<path fill="#FBFCFB" opacity="1.000000" stroke="none" 
	d="
M193.425690,878.766113 
	C193.339340,878.744446 193.691956,878.839050 193.740814,878.927795 
	C193.789688,879.016541 193.512039,878.787781 193.425690,878.766113 
z"/>
<path fill="#FCFAF6" opacity="1.000000" stroke="none" 
	d="
M136.037018,220.320679 
	C136.189529,220.339645 136.359375,220.748657 136.313446,221.324005 
	C136.083221,221.230484 136.068787,220.970596 136.037018,220.320679 
z"/>
<path fill="#FBFCFB" opacity="1.000000" stroke="none" 
	d="
M267.132019,887.320923 
	C267.046722,887.187134 267.499939,887.118591 267.726562,887.152832 
	C267.953217,887.187134 267.642578,887.523254 267.642578,887.523254 
	C267.642578,887.523254 267.217316,887.454773 267.132019,887.320923 
z"/>
<path fill="#B35330" opacity="1.000000" stroke="none" 
	d="
M633.273865,886.892090 
	C633.297668,886.760620 633.545898,886.659973 633.870728,886.709656 
	C633.947266,886.859924 633.498352,886.922852 633.273865,886.892090 
z"/>
<path fill="#B35330" opacity="1.000000" stroke="none" 
	d="
M572.274658,886.888672 
	C572.050903,886.857361 572.351318,886.483398 572.351318,886.483398 
	C572.351318,886.483398 572.792847,886.559998 572.869446,886.708862 
	C572.946045,886.857727 572.498474,886.919983 572.274658,886.888672 
z"/>
<path fill="#FBFCFB" opacity="1.000000" stroke="none" 
	d="
M841.129333,874.902527 
	C841.086792,874.743469 841.270142,874.546082 841.701904,874.355957 
	C841.740723,874.529358 841.542358,874.696411 841.129333,874.902527 
z"/>
<path fill="#FBFCFB" opacity="1.000000" stroke="none" 
	d="
M839.171021,875.909729 
	C839.149597,875.790771 839.315552,875.629578 839.690186,875.465698 
	C839.695007,875.578369 839.514893,875.713196 839.171021,875.909729 
z"/>
<path fill="#FBFCFB" opacity="1.000000" stroke="none" 
	d="
M199.190536,881.326416 
	C199.360626,881.236267 199.689331,881.354797 200.164841,881.701843 
	C199.990814,881.798584 199.669983,881.666870 199.190536,881.326416 
z"/>
<path fill="#45413F" opacity="1.000000" stroke="none" 
	d="
M527.882019,545.943909 
	C516.069153,603.093384 471.232635,646.230835 413.569489,655.907532 
	C409.313019,656.621826 405.040588,657.241089 400.049438,657.625000 
	C393.231567,657.562195 387.140137,657.955505 381.048004,657.966797 
	C341.003357,658.040955 300.958496,658.032776 260.913727,658.051392 
	C260.913727,658.051392 260.986206,658.010559 260.988037,657.603394 
	C260.993439,655.132019 260.996979,653.067932 261.000549,651.003784 
	C263.521118,648.385315 266.009064,645.734436 268.569092,643.155090 
	C273.978668,637.704590 277.567383,631.293396 279.471893,623.225708 
	C280.296997,621.365112 280.955627,619.995544 280.956604,618.625366 
	C281.006439,547.521301 281.009369,476.417114 280.936920,405.313019 
	C280.935486,403.880463 279.985321,402.448883 279.385620,400.672546 
	C279.366119,399.863251 279.438812,399.398224 279.846985,398.785095 
	C279.912231,393.772003 279.641998,388.907013 279.252869,384.097778 
	C279.134003,384.153534 278.880066,384.086731 278.880066,384.086731 
	C278.675079,375.576721 273.859039,369.699371 267.747620,364.550873 
	C264.976440,362.216309 262.236145,359.845001 259.590820,356.892670 
	C259.772797,354.178192 259.845795,352.061401 259.918762,349.944641 
	C259.918762,349.944641 259.998779,350.000000 260.355286,349.832153 
	C262.840149,349.444946 264.968292,349.036438 267.096863,349.034180 
	C304.192719,348.994751 341.288666,349.021393 378.384430,348.957184 
	C380.262634,348.953918 382.139679,348.261047 384.371613,347.816956 
	C385.447205,347.721375 386.168427,347.698090 386.889648,347.674805 
	C404.171509,349.239807 421.171082,352.083191 437.575836,358.042725 
	C468.763977,369.372742 492.313873,389.848083 509.385895,417.972900 
	C522.717590,439.935883 530.547668,463.802734 532.740112,490.218384 
	C532.362915,492.151672 531.986633,493.291412 532.021240,494.418579 
	C532.480652,509.384308 531.389221,524.197693 528.119934,538.844360 
	C527.613037,541.115417 527.940430,543.572754 527.882019,545.943909 
M337.382202,367.110504 
	C337.149658,367.421509 336.917084,367.732483 335.965576,368.315613 
	C335.645172,369.702087 335.044952,371.088379 335.044281,372.475037 
	C335.000732,459.230865 334.998535,545.986694 335.074402,632.742493 
	C335.075623,634.147217 336.085846,635.551086 336.920349,637.601685 
	C337.269379,638.428467 337.618408,639.255310 337.988831,640.014587 
	C337.988831,640.014587 337.919922,640.030884 338.519348,640.637268 
	C347.299225,640.689880 356.079132,640.742432 365.723389,640.901978 
	C370.324341,640.292358 374.933838,639.740417 379.524872,639.063599 
	C405.912811,635.173462 428.240448,623.696594 442.989990,601.137329 
	C451.364075,588.329346 458.056000,574.154419 463.622833,559.861877 
	C468.140717,548.262451 469.851776,535.569885 473.397888,522.659851 
	C473.587433,522.035339 473.941071,521.411133 473.942444,520.786194 
	C473.975403,505.736084 474.115662,490.683441 473.857269,475.637756 
	C473.801971,472.417297 472.277008,469.222076 471.142822,465.341339 
	C468.393524,455.268433 466.357147,444.932251 462.754089,435.174622 
	C453.849731,411.060333 440.609741,389.989685 416.822052,377.804443 
	C410.143066,374.383118 402.663086,372.525604 394.966492,369.373718 
	C389.330109,368.319153 383.693726,367.264557 377.316132,366.038239 
	C376.557617,366.008057 375.799072,365.977905 374.945160,365.691589 
	C374.945160,365.691589 374.969971,365.419373 374.517273,364.677673 
	C373.909241,364.461761 373.302124,364.060394 372.693085,364.057495 
	C362.127502,364.007111 351.561371,363.970764 340.996307,364.050659 
	C340.002106,364.058197 339.013947,364.864685 337.960266,365.836212 
	C337.921967,366.188934 337.883667,366.541656 337.872772,366.956848 
	C337.872772,366.956848 337.933899,366.926605 337.382202,367.110504 
z"/>
<path fill="#44413F" opacity="1.000000" stroke="none" 
	d="
M732.894165,347.171265 
	C733.381958,347.106079 733.869690,347.040894 735.179077,346.949646 
	C740.355530,346.988373 744.710388,347.053192 749.363403,347.379883 
	C753.102966,347.486633 756.544556,347.331512 759.986084,347.176392 
	C759.986084,347.176392 759.989807,347.009338 760.315002,346.959076 
	C761.068481,346.888947 761.496704,346.869110 761.924988,346.849243 
	C762.714661,346.891388 763.504333,346.933502 765.128052,346.961578 
	C769.623962,347.239471 773.285767,347.531464 776.947571,347.823456 
	C780.089722,350.334442 779.321716,352.563507 776.451416,354.633606 
	C772.131104,357.749542 767.804199,360.856445 763.485962,363.975433 
	C754.212891,370.673187 748.619507,379.879059 744.891052,390.529388 
	C724.986450,447.387909 704.971069,504.207672 685.011780,561.047119 
	C674.317078,591.503174 663.675903,621.978088 652.966858,652.429077 
	C651.037659,657.914612 648.229126,659.805603 642.006348,659.511414 
	C637.257629,659.286987 633.936401,657.483337 632.023254,652.266357 
	C607.041748,584.143738 581.799744,516.116638 556.644226,448.057831 
	C549.719788,429.323700 542.268555,410.755157 536.173950,391.753082 
	C531.659424,377.677490 523.815613,366.935852 511.294586,359.392517 
	C510.586975,358.966217 509.966980,358.394531 509.040955,357.339142 
	C508.487305,356.531891 508.198883,356.276031 507.910492,356.020142 
	C507.910492,356.020142 507.983337,356.016418 507.984009,355.607880 
	C507.968842,353.438507 507.952972,351.677704 507.937134,349.916870 
	C507.937134,349.916870 507.942383,350.004333 508.397888,349.993256 
	C539.290466,349.935303 569.727478,349.888458 600.164490,349.841583 
	C600.164490,349.841583 600.162048,349.914337 600.096436,350.376129 
	C600.047546,352.985779 600.064270,355.133606 600.080994,357.281494 
	C598.328247,359.093628 596.575500,360.905762 594.376709,362.917542 
	C593.821594,363.168427 593.616211,363.227753 593.619629,363.269684 
	C593.637756,363.486816 593.709290,363.699493 593.762207,363.913727 
	C589.623657,371.109436 589.836426,378.665710 592.550842,386.115479 
	C610.042419,434.121399 627.642090,482.087982 645.255249,530.049500 
	C649.616516,541.925415 654.191589,553.722534 658.589966,565.585022 
	C659.496521,568.030029 660.053589,570.604614 660.812195,573.261169 
	C665.326233,560.135132 669.716492,547.246460 674.190186,534.386841 
	C682.719727,509.868713 691.366638,485.391205 699.832520,460.851135 
	C706.725403,440.870667 713.460693,420.835480 720.196838,400.801361 
	C724.149841,389.044708 722.892639,372.472870 707.546936,363.969574 
	C705.226135,362.683563 703.128418,360.992828 700.937195,359.475342 
	C696.298340,356.262939 695.667053,353.181519 699.253601,347.635101 
	C707.303894,347.179474 714.685059,347.149719 722.364380,347.381287 
	C726.073059,347.485474 729.483643,347.328369 732.894165,347.171265 
z"/>
<path fill="#343C3B" opacity="1.000000" stroke="none" 
	d="
M279.477783,401.016846 
	C279.985321,402.448883 280.935486,403.880463 280.936920,405.313019 
	C281.009369,476.417114 281.006439,547.521301 280.956604,618.625366 
	C280.955627,619.995544 280.296997,621.365112 279.574158,622.847473 
	C279.159058,622.789978 279.114990,622.620056 279.056885,621.738037 
	C279.110748,573.960449 279.165436,526.894958 279.251740,479.829437 
	C279.299927,453.558533 279.400696,427.287720 279.477783,401.016846 
z"/>
<path fill="#343C3B" opacity="1.000000" stroke="none" 
	d="
M261.041809,658.272827 
	C300.958496,658.032776 341.003357,658.040955 381.048004,657.966797 
	C387.140137,657.955505 393.231567,657.562195 399.628601,657.610718 
	C395.507385,658.293762 391.080872,658.711609 385.849976,659.300293 
	C344.270599,659.581665 303.495605,659.692261 262.720642,659.802856 
	C262.203705,659.366638 261.686798,658.930481 261.041809,658.272827 
z"/>
<path fill="#343C3B" opacity="1.000000" stroke="none" 
	d="
M384.017242,347.889282 
	C382.139679,348.261047 380.262634,348.953918 378.384430,348.957184 
	C341.288666,349.021393 304.192719,348.994751 267.096863,349.034180 
	C264.968292,349.036438 262.840149,349.444946 260.314148,349.805542 
	C260.503143,349.161438 261.089783,348.376099 262.368835,347.379089 
	C298.727692,347.156494 334.394165,347.117950 370.060516,347.168152 
	C374.713104,347.174683 379.365021,347.637695 384.017242,347.889282 
z"/>
<path fill="#E27856" opacity="1.000000" stroke="none" 
	d="
M279.385620,400.672546 
	C279.400696,427.287720 279.299927,453.558533 279.251740,479.829437 
	C279.165436,526.894958 279.110748,573.960449 278.978699,621.486450 
	C278.607422,620.370789 278.032410,618.794739 278.031525,617.218384 
	C277.989014,541.027344 277.994324,464.836334 278.012177,388.645294 
	C278.012482,387.330963 278.231598,386.016724 278.614319,384.394592 
	C278.880066,384.086731 279.134003,384.153534 279.227661,384.509827 
	C279.384705,389.555115 279.448120,394.244171 279.511505,398.933197 
	C279.438812,399.398224 279.366119,399.863251 279.385620,400.672546 
z"/>
<path fill="#343C3B" opacity="1.000000" stroke="none" 
	d="
M600.145386,349.596313 
	C569.727478,349.888458 539.290466,349.935303 508.376556,349.954987 
	C508.469360,349.427307 509.039062,348.926788 510.298645,348.264923 
	C540.402588,348.127075 569.816589,348.150635 599.230652,348.174194 
	C599.529175,348.566467 599.827759,348.958771 600.145386,349.596313 
z"/>
<path fill="#EE7D59" opacity="1.000000" stroke="none" 
	d="
M384.371613,347.816956 
	C379.365021,347.637695 374.713104,347.174683 370.060516,347.168152 
	C334.394165,347.117950 298.727692,347.156494 262.603516,347.155060 
	C262.776337,346.765106 263.406525,346.057861 264.037567,346.057068 
	C303.857056,346.007843 343.676605,346.008911 383.496094,346.058624 
	C384.551422,346.059937 385.606049,346.646515 386.775330,347.317505 
	C386.168427,347.698090 385.447205,347.721375 384.371613,347.816956 
z"/>
<path fill="#EE7D59" opacity="1.000000" stroke="none" 
	d="
M263.044617,660.116089 
	C303.495605,659.692261 344.270599,659.581665 385.517273,659.441956 
	C384.546448,659.940369 383.104980,660.925354 381.661255,660.928589 
	C343.361115,661.014465 305.060730,661.003967 266.760406,660.976990 
	C265.629639,660.976196 264.499176,660.619812 263.044617,660.116089 
z"/>
<path fill="#343C3B" opacity="1.000000" stroke="none" 
	d="
M528.035156,545.597900 
	C527.940430,543.572754 527.613037,541.115417 528.119934,538.844360 
	C531.389221,524.197693 532.480652,509.384308 532.021240,494.418579 
	C531.986633,493.291412 532.362915,492.151672 532.709900,490.663757 
	C532.871582,490.309753 533.180298,490.233246 533.296326,490.593658 
	C533.410583,499.632660 533.408813,508.311279 533.407043,516.989868 
	C531.667480,526.410522 529.927856,535.831238 528.035156,545.597900 
z"/>
<path fill="#EE7D59" opacity="1.000000" stroke="none" 
	d="
M598.909302,347.865723 
	C569.816589,348.150635 540.402588,348.127075 510.524902,348.080505 
	C510.739868,347.708221 511.417938,347.054840 512.097168,347.053619 
	C539.965271,347.002625 567.833374,347.004852 595.701538,347.033600 
	C596.663879,347.034576 597.625793,347.375031 598.909302,347.865723 
z"/>
<path fill="#E27856" opacity="1.000000" stroke="none" 
	d="
M722.066284,347.119995 
	C714.685059,347.149719 707.303894,347.179474 699.471924,347.363586 
	C699.788025,347.021484 700.555054,346.094452 701.321777,346.094788 
	C709.331055,346.098175 717.340332,346.250336 725.274292,346.673920 
	C724.154724,347.031036 723.110474,347.075531 722.066284,347.119995 
z"/>
<path fill="#EE7D59" opacity="1.000000" stroke="none" 
	d="
M533.792786,516.777588 
	C533.408813,508.311279 533.410583,499.632660 533.409363,490.481812 
	C533.861450,490.459503 534.718140,490.915070 534.711975,491.358673 
	C534.595032,499.761719 534.376160,508.163330 533.792786,516.777588 
z"/>
<path fill="#E27856" opacity="1.000000" stroke="none" 
	d="
M749.065308,347.118011 
	C744.710388,347.053192 740.355530,346.988373 735.543457,346.888763 
	C740.509644,346.691040 745.933105,346.528107 751.305420,346.679382 
	C750.524597,347.035095 749.794983,347.076569 749.065308,347.118011 
z"/>
<path fill="#E27856" opacity="1.000000" stroke="none" 
	d="
M776.844116,347.453247 
	C773.285767,347.531464 769.623962,347.239471 765.520935,346.908417 
	C768.966736,346.940552 772.853699,347.011810 776.844116,347.453247 
z"/>
<path fill="#343C3B" opacity="1.000000" stroke="none" 
	d="
M600.378296,357.060486 
	C600.064270,355.133606 600.047546,352.985779 600.060547,350.382568 
	C603.122437,351.991180 602.188721,354.390839 600.378296,357.060486 
z"/>
<path fill="#1F3538" opacity="1.000000" stroke="none" 
	d="
M749.363403,347.379883 
	C749.794983,347.076569 750.524597,347.035095 751.617493,346.949921 
	C754.353821,346.973053 756.726990,347.039886 759.543091,347.141541 
	C756.544556,347.331512 753.102966,347.486633 749.363403,347.379883 
z"/>
<path fill="#343C3B" opacity="1.000000" stroke="none" 
	d="
M260.727966,651.223145 
	C260.996979,653.067932 260.993439,655.132019 260.969666,657.640686 
	C258.036469,656.075378 258.754364,653.795532 260.727966,651.223145 
z"/>
<path fill="#1F3538" opacity="1.000000" stroke="none" 
	d="
M722.364380,347.381287 
	C723.110474,347.075531 724.154724,347.031036 725.588745,346.942352 
	C727.997437,346.967499 730.016296,347.036835 732.464600,347.138733 
	C729.483643,347.328369 726.073059,347.485474 722.364380,347.381287 
z"/>
<path fill="#343C3B" opacity="1.000000" stroke="none" 
	d="
M259.568176,350.032715 
	C259.845795,352.061401 259.772797,354.178192 259.462402,356.590942 
	C259.222534,354.631592 259.220062,352.376190 259.568176,350.032715 
z"/>
<path fill="#343C3B" opacity="1.000000" stroke="none" 
	d="
M507.633575,350.150848 
	C507.952972,351.677704 507.968842,353.438507 507.966614,355.639954 
	C507.742401,354.181976 507.536224,352.283386 507.633575,350.150848 
z"/>
<path fill="#E27856" opacity="1.000000" stroke="none" 
	d="
M761.782654,346.651886 
	C761.496704,346.869110 761.068481,346.888947 760.319885,346.875671 
	C760.546509,346.713196 761.093384,346.583862 761.782654,346.651886 
z"/>
<path fill="#343C3B" opacity="1.000000" stroke="none" 
	d="
M593.913818,363.713562 
	C593.709290,363.699493 593.637756,363.486816 593.619629,363.269684 
	C593.616211,363.227753 593.821594,363.168427 594.116821,363.094025 
	C594.223816,363.218384 594.144592,363.365906 593.913818,363.713562 
z"/>
<path fill="#343C3B" opacity="1.000000" stroke="none" 
	d="
M508.002777,356.295197 
	C508.198883,356.276031 508.487305,356.531891 508.853271,357.075439 
	C508.652222,357.098816 508.373627,356.834503 508.002777,356.295197 
z"/>
<path fill="#C36F52" opacity="1.000000" stroke="none" 
	d="
M395.550507,369.950745 
	C402.663086,372.525604 410.143066,374.383118 416.822052,377.804443 
	C440.609741,389.989685 453.849731,411.060333 462.754089,435.174622 
	C466.357147,444.932251 468.393524,455.268433 471.366211,466.115173 
	C471.711975,468.933502 471.834381,470.977997 471.688080,473.285889 
	C471.888489,475.687042 472.357574,477.824829 472.910431,480.414124 
	C472.962036,483.927216 472.929871,486.988831 472.647644,490.304199 
	C472.562622,492.354645 472.727722,494.151245 472.959259,496.415710 
	C472.953033,505.709747 472.880371,514.535950 472.807739,523.362122 
	C469.851776,535.569885 468.140717,548.262451 463.622833,559.861877 
	C458.056000,574.154419 451.364075,588.329346 442.989990,601.137329 
	C428.240448,623.696594 405.912811,635.173462 379.524872,639.063599 
	C374.933838,639.740417 370.324341,640.292358 364.976929,640.600586 
	C355.460297,640.209717 346.690094,640.120300 337.919922,640.030884 
	C337.919922,640.030884 337.988831,640.014587 337.988770,639.572876 
	C337.984528,549.090820 337.980408,459.050568 337.984314,368.662720 
	C337.972839,367.852295 337.953369,367.389435 337.933899,366.926605 
	C337.933899,366.926605 337.872772,366.956848 338.341675,366.965759 
	C349.349335,366.983337 359.888458,367.034698 370.426514,366.953613 
	C371.967041,366.941772 373.502655,366.298737 375.040558,365.947754 
	C375.799072,365.977905 376.557617,366.008057 377.782776,366.480103 
	C384.016418,367.931549 389.783478,368.941162 395.550507,369.950745 
z"/>
<path fill="#1F3538" opacity="1.000000" stroke="none" 
	d="
M336.625214,636.955322 
	C336.085846,635.551086 335.075623,634.147217 335.074402,632.742493 
	C334.998535,545.986694 335.000732,459.230865 335.044281,372.475037 
	C335.044952,371.088379 335.645172,369.702087 336.380005,368.422302 
	C336.794464,368.528992 336.962646,368.997192 336.877350,369.459747 
	C336.763397,387.558075 336.717529,405.193878 336.709076,422.829651 
	C336.674835,494.204865 336.652161,565.580078 336.625214,636.955322 
z"/>
<path fill="#EE7D59" opacity="1.000000" stroke="none" 
	d="
M336.772766,637.278503 
	C336.652161,565.580078 336.674835,494.204865 336.709076,422.829651 
	C336.717529,405.193878 336.763397,387.558075 337.130859,369.461792 
	C337.638519,369.004272 337.807404,369.007263 337.976288,369.010284 
	C337.980408,459.050568 337.984528,549.090820 337.978058,639.606567 
	C337.618408,639.255310 337.269379,638.428467 336.772766,637.278503 
z"/>
<path fill="#E27856" opacity="1.000000" stroke="none" 
	d="
M374.992859,365.819672 
	C373.502655,366.298737 371.967041,366.941772 370.426514,366.953613 
	C359.888458,367.034698 349.349335,366.983337 338.327972,366.934509 
	C337.883667,366.541656 337.921967,366.188934 338.457397,365.522339 
	C350.959686,365.278778 362.964813,365.349060 374.969971,365.419373 
	C374.969971,365.419373 374.945160,365.691589 374.992859,365.819672 
z"/>
<path fill="#1F3538" opacity="1.000000" stroke="none" 
	d="
M471.956787,473.022491 
	C471.834381,470.977997 471.711975,468.933502 471.509338,466.452087 
	C472.277008,469.222076 473.801971,472.417297 473.857269,475.637756 
	C474.115662,490.683441 473.975403,505.736084 473.942444,520.786194 
	C473.941071,521.411133 473.587433,522.035339 473.102783,523.010986 
	C472.880371,514.535950 472.953033,505.709747 473.004395,495.996399 
	C472.954590,493.422943 472.926147,491.736694 472.897705,490.050415 
	C472.929871,486.988831 472.962036,483.927216 472.938782,480.023621 
	C472.574524,477.128571 472.265656,475.075531 471.956787,473.022491 
z"/>
<path fill="#1F3538" opacity="1.000000" stroke="none" 
	d="
M374.743622,365.048523 
	C362.964813,365.349060 350.959686,365.278778 338.488770,365.254395 
	C339.013947,364.864685 340.002106,364.058197 340.996307,364.050659 
	C351.561371,363.970764 362.127502,364.007111 372.693085,364.057495 
	C373.302124,364.060394 373.909241,364.461761 374.743622,365.048523 
z"/>
<path fill="#343C3B" opacity="1.000000" stroke="none" 
	d="
M279.846985,398.785095 
	C279.448120,394.244171 279.384705,389.555115 279.346558,384.454071 
	C279.641998,388.907013 279.912231,393.772003 279.846985,398.785095 
z"/>
<path fill="#EE7D59" opacity="1.000000" stroke="none" 
	d="
M338.219635,640.334106 
	C346.690094,640.120300 355.460297,640.209717 364.544739,640.547058 
	C356.079132,640.742432 347.299225,640.689880 338.219635,640.334106 
z"/>
<path fill="#E27856" opacity="1.000000" stroke="none" 
	d="
M395.258484,369.662231 
	C389.783478,368.941162 384.016418,367.931549 378.153381,366.565979 
	C383.693726,367.264557 389.330109,368.319153 395.258484,369.662231 
z"/>
<path fill="#E27856" opacity="1.000000" stroke="none" 
	d="
M337.984314,368.662720 
	C337.807404,369.007263 337.638519,369.004272 337.216125,368.999207 
	C336.962646,368.997192 336.794464,368.528992 336.739502,368.286224 
	C336.917084,367.732483 337.149658,367.421509 337.658051,367.018555 
	C337.953369,367.389435 337.972839,367.852295 337.984314,368.662720 
z"/>
<path fill="#E27856" opacity="1.000000" stroke="none" 
	d="
M471.688080,473.285889 
	C472.265656,475.075531 472.574524,477.128571 472.855042,479.572083 
	C472.357574,477.824829 471.888489,475.687042 471.688080,473.285889 
z"/>
<path fill="#E27856" opacity="1.000000" stroke="none" 
	d="
M472.647614,490.304199 
	C472.926147,491.736694 472.954590,493.422943 472.937927,495.528564 
	C472.727722,494.151245 472.562622,492.354645 472.647614,490.304199 
z"/>
</svg>